<svg width="256" height="256" xmlns="http://www.w3.org/2000/svg">
	<g fill="#bdbcb9" stroke="#bdbcb9" stroke-width="60" stroke-linecap="round" stroke-linejoin="round">
		<path d="M175.221 150.242q1.28 15.616-.512 20.48-7.68 20.992-49.92 26.368-14.336 1.792-28.672-13.568 0 2.304 1.024 13.824.768 8.448-.256 13.824-6.4 4.096-10.24 4.096-5.888 0-5.888-11.52 0-2.048.256-6.4t.256-6.4q0-4.352-.768-6.144v-14.08q0-.768.768-2.304-.256-4.864.256-11.008.512-4.864 0-5.888-1.28-2.56-1.28-3.072 1.024-7.168 10.496-7.168 6.144 0 7.424 4.352 0 18.176 10.752 30.464 9.216 10.496 17.152 9.728 22.784-2.304 31.744-12.032 3.84-4.096 3.84-12.8 0-15.616-11.52-23.296-5.12-3.328-18.944-5.376-7.424-1.024-9.728-1.024-12.032.256-22.272-7.168-11.264-7.936-11.264-19.712V89.57q0-4.864 5.632-22.784l2.816-8.96q2.304-5.376 5.888-7.168 8.704-4.352 18.432-4.352 18.944 0 27.904 15.36.768.768 2.56 2.304.256-3.584 1.024-11.008-.256-1.536-.512-6.4-.256-3.584 3.584-4.864.512-.256 2.816-.768 5.12-1.024 6.912 3.328 1.28 3.072 1.024 8.704-.512 9.472-3.328 41.728.512 4.096 0 11.264-1.28 4.864-7.68 4.864-3.328 0-6.4-1.792-1.536-4.864-1.536-4.096.512-6.912-2.816-18.432-2.56-5.888-8.192-16.896-5.376-11.008-12.8-11.52-10.752-.768-13.312 6.912-.768 2.56-2.816 9.728-3.072 10.496-3.84 18.176-.256 2.816-.512 2.304 1.28 8.192 2.048 11.008 2.56 7.936 9.728 10.752 4.352 1.792 15.36 2.304 34.56 2.048 42.752 24.064 1.28 2.048 2.56 6.912z" color="#000" stroke="none" transform="translate(-4.043 -4.098)" />
		<path d="M160.883 14.935c-1.79.124-3.462.362-4.973.664-.208.042-.417.087-.625.133-2.04.454-.747-1.179-9.049 2.906-2.152.947-4.381 2.214-6.623 3.825-5.038-1.334-10.166-2.07-15.195-2.07-10.959 0-22.046 2.618-31.848 7.519-10.822 5.411-16.767 14.532-20.046 22.183a30.003 30.003 0 0 0-1.045 2.823l-2.817 8.96c-3.987 12.688-7.011 16.958-7.011 31.78v14.848c0 6.133 1.392 12.258 3.699 18.052-6.017 6.18-10.073 14.698-11.078 21.737a30.003 30.003 0 0 0-.301 4.242c0 6.681.545 9.292 1.158 10.57-.07 1.322-.162 2.66-.187 3.965-.405 1.99-.715 4.34-.715 7.736v14.08c0 4.063.825 8.084 2.426 11.819-1.285-2.996-1.55-4.24-1.684-5.086-.012.48-.045 1.757-.18 4.05-.187 3.177-.306 5.547-.306 8.163 0 6.395.087 13.156 4.757 22.293 4.67 9.137 19.384 19.226 31.13 19.226 13.226 0 19.85-4.629 26.411-8.828a30.003 30.003 0 0 0 9.016-9.281c2.13.006 4.27-.028 6.438-.299l.066-.008c16.393-2.086 30.813-5.641 43.824-12.514 13-6.866 24.993-18.344 30.467-33.267 5.583-15.17 3.22-21.485 2.254-33.278a30.003 30.003 0 0 0-.887-5.183c-1.04-3.95-1.896-7.513-4.664-12.56-2.206-5.07-5.229-9.8-8.744-14.153.27-.768.667-1.56.863-2.307.474-1.8.78-3.64.912-5.496.313-4.374.352-8.432.114-12.674 1.737-19.985 2.861-33.723 3.246-40.837.005-.086.01-.171.013-.256.285-6.25.323-12.863-3.277-21.54-2.68-6.475-8.81-14.466-17.326-18.566-6.403-3.082-12.843-3.743-18.213-3.37zM55.506 157.593c0-.757.013-.23-.092.764-.022.216-.042.432-.06.649-.045.536-.048 1.05-.086 1.582-.285-1.984.238-2.574.238-2.995z" color="#000" stroke="#9e9d9a" stroke-width="10" transform="translate(-4.043 -4.098)" />
		<path d="M184.447 156.78q1.42 17.33-.568 22.728-8.523 23.296-55.4 29.262-15.909 1.99-31.818-15.057 0 2.557 1.136 15.342.852 9.375-.284 15.34-7.103 4.546-11.364 4.546-6.534 0-6.534-12.784 0-2.273.284-7.102.284-4.83.284-7.103 0-4.83-.852-6.818v-15.626q0-.852.852-2.557-.284-5.397.284-12.216.568-5.398 0-6.534-1.42-2.841-1.42-3.41 1.136-7.954 11.648-7.954 6.818 0 8.238 4.83 0 20.17 11.933 33.807 10.227 11.648 19.034 10.796 25.285-2.557 35.228-13.353 4.262-4.545 4.262-14.204 0-17.33-12.785-25.853-5.681-3.694-21.023-5.967-8.239-1.136-10.796-1.136-13.352.284-24.716-7.955-12.5-8.807-12.5-21.875V89.449q0-5.398 6.25-25.285l3.125-9.943q2.557-5.966 6.534-7.955 9.66-4.83 20.455-4.83 21.023 0 30.967 17.046.852.852 2.84 2.557.285-3.977 1.137-12.216-.284-1.705-.568-7.103-.284-3.977 3.977-5.398.569-.284 3.126-.852 5.682-1.136 7.67 3.693 1.42 3.41 1.137 9.66-.569 10.511-3.694 46.308.569 4.546 0 12.5-1.42 5.398-8.523 5.398-3.693 0-7.102-1.989-1.705-5.397-1.705-4.545.569-7.67-3.125-20.455-2.84-6.535-9.09-18.75-5.967-12.217-14.206-12.785-11.932-.853-14.773 7.67-.852 2.841-3.125 10.796-3.41 11.648-4.262 20.171-.284 3.125-.568 2.557 1.42 9.091 2.273 12.216 2.841 8.807 10.796 11.933 4.83 1.988 17.046 2.556 38.353 2.273 47.444 26.706 1.42 2.272 2.841 7.67z" fill="#fff" stroke="none" transform="translate(-4.043 -4.098)"  />
	</g>
</svg>